<svg width="84" height="32" viewBox="0 0 84 32" fill="none" xmlns="http://www.w3.org/2000/svg">
<path fill-rule="evenodd" clip-rule="evenodd" d="M26.5128 4.2294C27.5116 5.0941 28.2052 5.86778 28.2052 5.86778C28.2052 5.86778 27.7058 6.50493 27.2989 7.14208C26.8364 7.87025 26.4388 8.75316 26.2631 9.09904C25.8469 9.91823 25.2735 12.0754 25.1995 12.0481C25.1255 11.9571 24.7741 11.2289 24.1822 10.4097C23.7198 9.77259 23.1279 9.13544 22.7764 8.86238C21.2967 7.49706 19.9095 6.67787 17.2275 6.31378C16.3951 6.13174 15.5628 6.22276 14.7305 6.31378C13.0658 6.58684 11.4011 7.22399 10.1063 8.13421C9.18149 8.77136 8.0717 9.95463 7.33184 11.32C6.96191 12.0481 6.40701 13.3224 6.31453 13.7775C5.9446 15.598 6.03708 16.9633 6.31453 18.3286C6.68446 19.4209 7.05439 20.4221 7.5168 21.2413C7.97922 21.9694 8.25666 22.2425 8.44163 22.4246C9.27397 23.3348 10.3838 24.154 11.4011 24.7911C12.5109 25.3372 13.7131 25.7013 14.8229 25.8834C15.3778 25.9744 16.2102 25.9744 16.95 25.9744C17.4125 25.8834 17.8749 25.8834 18.2448 25.7923C19.4471 25.5193 20.1869 25.1552 20.4644 25.0642C21.8516 24.5181 23.7013 22.9707 24.7186 21.6054C25.4585 20.5131 26.0133 18.9657 26.0133 18.9657H20.0945C20.0945 18.9657 19.3546 18.8747 18.7072 18.6017C18.2078 18.3286 17.7824 17.9645 17.4679 17.4184C17.098 16.7812 17.0055 15.871 17.3755 15.1429C17.6529 14.4147 18.3003 13.9596 18.7627 13.732C19.4101 13.3679 20.2424 13.3679 20.2424 13.3679H26.6237C26.6237 13.3679 26.9567 11.0014 28.0387 8.90789C28.4086 8.0887 29.056 7.06016 29.5184 6.45031C29.9439 5.86778 30.6282 4.99398 31.3219 4.35683C32.4317 3.26457 33.7264 2.31795 34.8085 1.77182C36.2882 1.04365 36.8431 0.861609 38.6002 0.360992C39.5251 0.087928 41.9296 -0.0941182 43.8255 0.0515159C45.7677 0.178946 47.5248 0.634053 48.2185 0.898014C50.9929 1.99027 52.8426 3.57404 53.5824 4.35683C54.5073 5.23973 55.5246 6.66877 55.5246 6.66877C56.172 5.84958 56.5419 5.48549 56.9118 5.03038C57.6517 4.21119 58.1141 3.93813 59.0389 3.20996C60.1487 2.29974 61.7209 1.48055 62.8307 1.11646C64.2179 0.570336 65.6422 0.206252 67.2236 0.115231C69.2583 -0.157833 71.2466 0.115231 72.9298 0.570337C73.8361 0.79789 75.4269 1.33492 76.9066 2.20872C78.4325 3.11894 79.9585 4.39324 81.1608 5.84958C82.1504 6.94183 83.0104 8.39817 83.4729 9.58145C83.7503 10.1276 84 10.6282 84 10.9468C84 12.6307 80.9943 13.1677 80.2082 13.0403C79.1354 12.8582 78.2938 12.4486 78.0349 11.9844C77.8499 11.6931 77.6834 11.3291 77.4985 10.9832C77.1285 10.255 76.6014 9.52683 75.4084 8.43458C74.6685 7.79743 73.1888 6.88722 71.8015 6.50493C69.286 5.74035 67.7323 6.01341 66.6965 6.23186C65.6792 6.41391 63.5521 7.09656 61.7024 8.81687C60.2227 10.1822 59.3904 11.9116 59.0204 13.0676C58.4655 14.706 58.6505 15.7982 58.4655 17.5276C58.2806 19.4846 57.7257 21.2595 57.2633 22.2607C56.6159 23.7535 55.3674 26.4022 52.0842 28.9053C50.6045 29.9975 48.9398 30.8167 46.9052 31.4539C45.4994 31.8362 43.6683 32 42.2533 32C40.4037 32 38.3135 31.5449 36.9818 31.0898C34.2073 30.1796 32.6166 28.7232 32.145 28.3591C30.7577 27.2669 29.2317 25.4101 29.2317 25.4101C29.2317 25.4101 26.1428 30.0521 20.1684 31.463C18.291 31.9181 16.2564 32.1001 14.1108 31.7633C10.7814 31.3082 7.91448 29.9975 6.06482 28.3956C4.67758 27.3033 3.25335 25.7377 2.18055 23.9355C0.885796 21.751 0.238414 19.2934 0.0534483 17.291C-0.131517 15.2521 0.145935 12.4668 1.16325 10.0639C1.94935 8.15241 3.19786 6.45942 4.40014 5.14871C5.78738 3.62865 7.68327 2.36346 9.57917 1.50786C11.5213 0.688664 13.4264 0.324584 14.9432 0.233563C16.0807 0.142541 17.6252 0.197151 18.9199 0.415603C20.5106 0.688667 21.9071 1.2348 22.8227 1.59888C23.914 2.05399 25.5972 3.10983 26.707 4.05646L26.5128 4.2294ZM42.429 5.93149C36.7876 5.93149 32.2559 10.519 32.2559 16.2169C32.2559 21.8875 36.7876 26.5023 42.429 26.5023C48.0705 26.5023 52.6021 21.8966 52.6021 16.2169C52.6021 10.5736 48.015 5.99521 42.429 5.99521V5.93149ZM62.4238 23.9264C60.5741 22.379 59.6493 20.4676 59.5568 20.5222C59.4643 20.5222 58.817 22.7067 58.2158 23.981C57.7904 24.8912 56.5511 26.5569 56.5511 26.5569C56.5511 26.5569 58.0309 28.1953 59.9268 29.4696C61.388 30.4162 63.2561 31.108 63.811 31.2263C64.2734 31.3173 65.6607 31.7725 67.4179 31.8635C68.2317 31.9363 69.0825 31.9363 69.9149 31.8635C70.3773 31.8453 70.9322 31.7724 71.3946 31.6814C73.7067 31.4084 76.2777 30.043 76.7309 29.77C77.3505 29.4787 78.7655 28.5594 80.0602 27.3124C81.207 26.2201 82.1873 24.7638 82.4648 24.2814C83.1677 23.0981 83.9445 21.8511 83.7133 21.0956C83.4359 20.3675 82.696 19.5483 81.4012 19.1842C80.014 18.8201 78.9967 19.0568 78.562 19.3662C78.1921 19.6393 78.0071 19.6393 77.6372 20.4585C77.5447 20.7316 77.0823 21.6418 76.3424 22.5065C75.6303 23.2802 74.7887 23.9628 74.2153 24.3724C72.9206 25.1916 71.4409 25.7377 70.1461 25.9198C68.8513 26.0381 67.834 25.9198 67.2791 25.9198C66.1693 25.7559 63.9035 25.1006 62.3776 23.8263" fill="#ffffff"/>
</svg>
